<?xml version="1.0" encoding="UTF-8"?>
<svg version="1.1" xmlns="http://www.w3.org/2000/svg" width="1848" height="2048">
<path d="M0 0 C1.48329787 -0.00646355 2.9665946 -0.01319418 4.44989014 -0.02017212 C7.54246965 -0.03204173 10.63493844 -0.03586431 13.72753906 -0.03466797 C16.83585147 -0.0345065 19.94356771 -0.04824002 23.05175781 -0.07568359 C47.7228544 -0.28997092 71.56591078 1.26630055 95.546875 7.6484375 C96.70131104 7.94766113 97.85574707 8.24688477 99.04516602 8.55517578 C117.06594959 13.31999313 134.23641656 19.55978279 151.171875 27.3359375 C151.96851563 27.69993652 152.76515625 28.06393555 153.5859375 28.43896484 C166.25549458 34.3059524 178.12310525 41.40077043 189.99398804 48.71203613 C190.59409698 49.08163452 191.19420593 49.45123291 191.8125 49.83203125 C192.41671783 50.20420776 193.02093567 50.57638428 193.64346313 50.95983887 C200.32249259 55.06220097 207.08747414 59.01448378 213.859375 62.9609375 C229.30700898 71.9767272 244.66095614 81.14344774 259.93359375 90.453125 C262.26287916 91.87262849 264.59228705 93.29193056 266.921875 94.7109375 C267.500513 95.06344574 268.079151 95.41595398 268.67532349 95.77914429 C279.01279506 102.0717135 289.43383573 108.21417865 299.88452148 114.31640625 C307.37837024 118.69272198 314.84365348 123.11237541 322.27612305 127.59228516 C331.65463842 133.24061144 341.0756351 138.81737883 350.4934082 144.39990234 C357.52719109 148.57051799 364.55016874 152.75820992 371.55931091 156.97010803 C377.87482944 160.76288556 384.2109878 164.52057377 390.54849243 168.27645874 C401.04410348 174.4974039 411.52818923 180.73639961 421.984375 187.0234375 C433.19651926 193.76350912 444.44712197 200.43735432 455.70558167 207.09970093 C462.42227905 211.07491636 469.13467695 215.05737209 475.84616089 219.04138184 C477.20033861 219.84516417 478.55460296 220.64880057 479.90896606 221.45227051 C486.87204701 225.58310307 493.82737422 229.72601723 500.765625 233.8984375 C507.20150974 237.76679062 513.66898019 241.57792855 520.15304565 245.3651123 C533.83171838 253.35600029 547.46462483 261.42235477 561.08789062 269.50732422 C565.67481213 272.22708689 570.26713369 274.93767091 574.859375 277.6484375 C578.630798 279.87660752 582.40146158 282.1060596 586.171875 284.3359375 C586.75217468 284.67904968 587.33247437 285.02216187 587.93035889 285.37567139 C592.55409251 288.10979385 597.17623125 290.84659636 601.796875 293.5859375 C602.47859772 293.99006866 603.16032043 294.39419983 603.86270142 294.81057739 C614.04699832 300.85148798 624.17758676 306.97547414 634.2835083 313.1463623 C643.55820298 318.80440034 652.93385075 324.26828564 662.36450195 329.66186523 C671.76737673 335.05812979 681.03539455 340.66083795 690.28222656 346.31860352 C695.39933103 349.44787336 700.52074115 352.56205562 705.71484375 355.5625 C706.52300537 356.02938232 707.33116699 356.49626465 708.16381836 356.97729492 C709.62303919 357.81489935 711.0858763 358.64624886 712.55297852 359.4699707 C714.12476058 360.37141897 715.65465367 361.34540872 717.171875 362.3359375 C717.171875 362.9959375 717.171875 363.6559375 717.171875 364.3359375 C717.955625 364.4803125 718.739375 364.6246875 719.546875 364.7734375 C722.171875 365.3359375 722.171875 365.3359375 724.171875 366.3359375 C724.171875 366.9959375 724.171875 367.6559375 724.171875 368.3359375 C724.87626709 368.59753662 725.58065918 368.85913574 726.30639648 369.12866211 C729.38008887 370.42366158 732.14353408 371.96315686 735.01953125 373.65234375 C735.58026337 373.98072739 736.14099548 374.30911102 736.71871948 374.64744568 C738.55954824 375.72728827 740.3971025 376.81255676 742.234375 377.8984375 C743.52479853 378.65824123 744.81524485 379.41800626 746.10571289 380.17773438 C759.54004144 388.1003921 772.88785945 396.16391579 786.171875 404.3359375 C787.35765137 405.06296875 787.35765137 405.06296875 788.56738281 405.8046875 C795.52597514 410.08890765 802.00489837 414.66550082 808.25390625 419.9453125 C811.6780419 422.75062846 815.21580555 425.36103763 818.796875 427.9609375 C833.8751577 438.92971207 833.8751577 438.92971207 840.171875 445.3359375 C841.29586407 446.46194752 842.42093055 447.58688275 843.546875 448.7109375 C845.96354167 451.12760417 848.38020833 453.54427083 850.796875 455.9609375 C851.37091064 456.53481201 851.94494629 457.10868652 852.53637695 457.69995117 C854.01369612 459.17771139 855.48936908 460.65711688 856.96484375 462.13671875 C858.45201361 463.61862429 859.95918605 465.0806912 861.484375 466.5234375 C863.171875 468.3359375 863.171875 468.3359375 863.171875 470.3359375 C863.831875 470.3359375 864.491875 470.3359375 865.171875 470.3359375 C899.77246969 506.28255075 923.62884803 558.07388571 934.484375 606.0859375 C934.71471436 607.10059082 934.94505371 608.11524414 935.18237305 609.16064453 C935.90894356 612.54313024 936.54710982 615.93304853 937.171875 619.3359375 C937.29786464 620.01255834 937.42385427 620.68917917 937.55366178 621.38630367 C940.38725319 637.09860968 940.60403785 652.66855363 940.55727766 668.58717168 C940.54956791 672.36498015 940.55948614 676.14275335 940.56700766 679.9205566 C940.57777514 686.5215947 940.57755602 693.12255902 940.56986618 699.72360039 C940.55846196 709.54005607 940.56434926 719.35645016 940.5734911 729.1729055 C940.58924738 746.71105932 940.58793547 764.24918026 940.57925436 781.78733717 C940.57169459 797.13630001 940.56974369 812.48525084 940.5733223 827.83421516 C940.57355145 828.85408916 940.57378061 829.87396315 940.57401671 830.92474242 C940.57495079 835.06521159 940.575906 839.20568075 940.576896 843.3461499 C940.58606419 882.15322656 940.57776673 920.96028232 940.56160531 959.76735574 C940.54737055 994.20990526 940.5486425 1028.65242148 940.56298828 1063.0949707 C940.57906883 1101.83155692 940.5854128 1140.56812469 940.57615149 1179.30471379 C940.5751894 1183.43775721 940.57425088 1187.57080064 940.5733223 1191.70384407 C940.57296645 1193.23022666 940.57296645 1193.23022666 940.57260341 1194.78744526 C940.56919776 1210.1222885 940.5731692 1225.45711837 940.58076096 1240.79195976 C940.58935476 1258.23737406 940.58716019 1275.68275045 940.57091872 1293.12816005 C940.56213862 1302.87952757 940.56149305 1312.63081293 940.57285725 1322.38217824 C940.57962218 1328.90950811 940.57533007 1335.43677261 940.56234294 1341.96409285 C940.55526011 1345.67383326 940.55265304 1349.3834114 940.56356089 1353.09314626 C940.62065124 1374.04050027 939.1661654 1394.19752582 934.484375 1414.6484375 C934.10200684 1416.33126831 934.10200684 1416.33126831 933.71191406 1418.0480957 C922.73361848 1464.83045623 900.62743392 1506.66074714 870.3984375 1543.77148438 C869.24882497 1545.23778953 868.20541407 1546.7856289 867.171875 1548.3359375 C866.511875 1548.3359375 865.851875 1548.3359375 865.171875 1548.3359375 C864.90487793 1548.92366943 864.63788086 1549.51140137 864.36279297 1550.11694336 C863.15052768 1552.37571318 861.86339843 1553.97179811 860.1171875 1555.83984375 C859.50858887 1556.49251221 858.89999023 1557.14518066 858.27294922 1557.81762695 C857.62084473 1558.50429443 856.96874023 1559.19096191 856.296875 1559.8984375 C855.62285645 1560.61153076 854.94883789 1561.32462402 854.25439453 1562.05932617 C848.47515702 1568.11912908 842.4803621 1573.82440023 836.171875 1579.3359375 C835.68074219 1579.77180176 835.18960937 1580.20766602 834.68359375 1580.65673828 C820.13210974 1593.54908991 804.2465021 1604.07923223 787.59375 1614.05078125 C782.43917051 1617.14764259 777.43145935 1620.41797639 772.45581055 1623.79199219 C768.12899055 1626.71943621 763.73672746 1629.52067513 759.296875 1632.2734375 C753.84301821 1635.65563337 748.42755347 1639.08843309 743.046875 1642.5859375 C736.61099562 1646.76755019 730.1500146 1650.90759447 723.671875 1655.0234375 C701.59316311 1669.05699261 679.60304439 1683.21565873 657.7265625 1697.5625 C644.87718906 1705.98485829 631.97603999 1714.31466383 618.99951172 1722.53955078 C613.88138762 1725.79107531 608.77740476 1729.06468762 603.671875 1732.3359375 C586.6500075 1743.23690554 569.59527314 1754.08500975 552.49853516 1764.86816406 C548.55527257 1767.35577106 544.61364816 1769.84597135 540.671875 1772.3359375 C535.95781637 1775.31374621 531.24347264 1778.29109585 526.52734375 1781.265625 C509.13888043 1792.23513617 491.8025509 1803.28553989 474.48974609 1814.37402344 C467.72429706 1818.70600053 460.9514375 1823.02608594 454.171875 1827.3359375 C442.15489147 1834.97609009 430.16307144 1842.65539795 418.171875 1850.3359375 C405.28299736 1858.59145521 392.38968553 1866.83957669 379.47314453 1875.05175781 C368.35698142 1882.1218691 357.26539486 1889.23037314 346.171875 1896.3359375 C333.28299736 1904.59145521 320.38968553 1912.83957669 307.47314453 1921.05175781 C297.43297624 1927.43751398 287.41340506 1933.85537828 277.39355469 1940.27294922 C274.10402826 1942.37938286 270.813839 1944.48477734 267.5234375 1946.58984375 C249.40124184 1958.17082322 249.40124184 1958.17082322 231.328125 1969.828125 C219.65356496 1977.40058695 207.92347804 1984.88365012 196.171875 1992.3359375 C195.30643066 1992.88491699 194.44098633 1993.43389648 193.54931641 1993.99951172 C188.77680587 1997.02524495 183.99891238 2000.04217991 179.21435547 2003.04882812 C177.39511527 2004.19525824 175.581594 2005.35009066 173.76953125 2006.5078125 C156.75517689 2017.23565257 138.99630863 2025.31374635 120.171875 2032.3359375 C119.3586377 2032.64015625 118.54540039 2032.944375 117.70751953 2033.2578125 C91.29613213 2042.97656126 63.12704514 2048.43745602 35.015625 2048.57421875 C33.93618874 2048.58033204 33.93618874 2048.58033204 32.83494568 2048.58656883 C29.01187443 2048.60732422 25.18883775 2048.6216605 21.36572266 2048.63110352 C18.26493162 2048.63987896 15.16460112 2048.66056476 12.06396484 2048.69262695 C-33.70496775 2049.15525791 -79.02903793 2040.00021302 -119.76220703 2018.421875 C-122.00079387 2017.24517513 -124.25479778 2016.10205147 -126.51171875 2014.9609375 C-135.38120824 2010.43972637 -143.77973941 2005.59221463 -151.98046875 1999.953125 C-156.21124563 1997.04755897 -160.54370289 1994.31356731 -164.890625 1991.5859375 C-166.50003546 1990.57427515 -168.10940968 1989.56255517 -169.71875 1988.55078125 C-170.54568359 1988.03112793 -171.37261719 1987.51147461 -172.22460938 1986.97607422 C-186.40078211 1978.04551079 -200.51851101 1969.0192279 -214.578125 1959.90625 C-231.83570973 1948.72070022 -249.17016032 1937.65540934 -266.52490234 1926.62133789 C-278.70609291 1918.87394332 -290.85831554 1911.08123378 -303.01464844 1903.29492188 C-313.94391447 1896.29509107 -324.87563888 1889.2993962 -335.828125 1882.3359375 C-348.90951381 1874.01894812 -361.9612833 1865.65579627 -375.01464844 1857.29492188 C-386.83938665 1849.72157097 -398.6700012 1842.15786983 -410.52026367 1834.62451172 C-417.46465903 1830.20813363 -424.39795825 1825.77460378 -431.328125 1821.3359375 C-441.91516569 1814.55561036 -452.51676664 1807.79851636 -463.12646484 1801.05371094 C-467.69458559 1798.14920185 -472.26125914 1795.2424191 -476.828125 1792.3359375 C-478.18647461 1791.47162109 -478.18647461 1791.47162109 -479.57226562 1790.58984375 C-484.19335402 1787.64945014 -488.81393162 1784.70825898 -493.43359375 1781.765625 C-505.21498416 1774.26230122 -517.01348873 1766.78678874 -528.828125 1759.3359375 C-547.76822552 1747.39144186 -566.66289245 1735.37695309 -585.51464844 1723.29345703 C-590.45192842 1720.130155 -595.39312189 1716.97379911 -600.3515625 1713.84375 C-611.02463617 1707.10122602 -621.5775475 1700.19980266 -632.06433105 1693.17248535 C-642.28306351 1686.32805976 -652.61636904 1679.68142794 -663.01660156 1673.11621094 C-668.1333195 1669.87627457 -673.22943837 1666.604146 -678.328125 1663.3359375 C-686.38214875 1658.17670773 -694.44391779 1653.02995683 -702.515625 1647.8984375 C-711.773997 1642.01203273 -721.01095471 1636.09379224 -730.2265625 1630.140625 C-736.29582522 1626.22397767 -742.38705249 1622.34669768 -748.515625 1618.5234375 C-749.17618896 1618.11013184 -749.83675293 1617.69682617 -750.51733398 1617.27099609 C-754.15779484 1614.99467593 -757.80731443 1612.73462688 -761.46875 1610.4921875 C-772.44661598 1603.725179 -782.78521054 1596.4259199 -792.828125 1588.3359375 C-793.39692383 1587.87896484 -793.96572266 1587.42199219 -794.55175781 1586.95117188 C-808.04684121 1576.02234009 -822.11806642 1564.0721797 -832.828125 1550.3359375 C-832.828125 1549.6759375 -832.828125 1549.0159375 -832.828125 1548.3359375 C-833.488125 1548.3359375 -834.148125 1548.3359375 -834.828125 1548.3359375 C-836.08984375 1546.99755859 -836.08984375 1546.99755859 -837.515625 1545.109375 C-838.04422119 1544.41473145 -838.57281738 1543.72008789 -839.11743164 1543.00439453 C-839.68196045 1542.24755371 -840.24648926 1541.49071289 -840.828125 1540.7109375 C-841.41263428 1539.93476074 -841.99714355 1539.15858398 -842.59936523 1538.35888672 C-844.35095929 1536.02422549 -846.09129722 1533.68159754 -847.828125 1531.3359375 C-848.28848145 1530.71783203 -848.74883789 1530.09972656 -849.22314453 1529.46289062 C-875.25543468 1494.37807503 -892.99087718 1455.31605252 -902.578125 1412.7109375 C-902.76487793 1411.89077148 -902.95163086 1411.07060547 -903.14404297 1410.22558594 C-903.77270571 1407.27149239 -904.30524746 1404.31086986 -904.828125 1401.3359375 C-904.94923637 1400.64794625 -905.07034775 1399.959955 -905.19512916 1399.25111552 C-907.92565202 1383.19170976 -908.26372134 1367.31274169 -908.21972902 1351.06332235 C-908.21292602 1347.30002801 -908.22373128 1343.53677281 -908.23212487 1339.77348727 C-908.24441573 1333.19934063 -908.2457373 1326.62526543 -908.23957443 1320.05111122 C-908.23043414 1310.27438511 -908.23855469 1300.49772437 -908.24986567 1290.72100324 C-908.26947924 1273.25215139 -908.27189017 1255.7833293 -908.26667047 1238.31446906 C-908.26210411 1223.02358841 -908.2627239 1207.7327195 -908.26851082 1192.44183922 C-908.2692677 1190.38662211 -908.27002368 1188.331405 -908.27077876 1186.27618789 C-908.27192402 1183.17872458 -908.27307391 1180.08126126 -908.27423801 1176.98379795 C-908.284935 1148.20565542 -908.28967654 1119.42751678 -908.28176785 1090.64937305 C-908.28147067 1089.56573829 -908.2811735 1088.48210353 -908.28086732 1087.36563135 C-908.27841867 1078.56713029 -908.27580694 1069.76862928 -908.27318319 1060.97012827 C-908.26308357 1026.66162617 -908.27143403 992.35317302 -908.29467773 958.04467773 C-908.32078374 919.44940087 -908.3335893 880.85415346 -908.32648998 842.25886744 C-908.32577398 838.13894984 -908.32509959 834.01903223 -908.32444954 829.89911461 C-908.32427973 828.88477613 -908.32410992 827.87043766 -908.32393497 826.82536165 C-908.32163764 811.55276603 -908.32958189 796.28019788 -908.34274101 781.00760841 C-908.35769076 763.62639987 -908.35844407 746.24525545 -908.3406701 728.86404822 C-908.3311475 719.15369385 -908.33245873 709.4434893 -908.34990479 699.73314511 C-908.36046887 693.22680748 -908.35619031 686.72058283 -908.34042475 680.21425615 C-908.33187278 676.52058704 -908.3291678 672.8272093 -908.34469407 669.13355622 C-908.51703002 625.01173531 -898.62658769 583.22328288 -879.828125 543.3359375 C-879.42287598 542.47468262 -879.01762695 541.61342773 -878.60009766 540.72607422 C-869.21620932 521.1290935 -856.81195366 503.06000372 -843.68017578 485.79907227 C-842.34107814 484.01813948 -841.06411157 482.18991735 -839.828125 480.3359375 C-839.168125 480.3359375 -838.508125 480.3359375 -837.828125 480.3359375 C-837.51875 479.7171875 -837.209375 479.0984375 -836.890625 478.4609375 C-836.203125 477.0859375 -835.515625 475.7109375 -834.828125 474.3359375 C-834.168125 474.3359375 -833.508125 474.3359375 -832.828125 474.3359375 C-832.60125 473.7790625 -832.374375 473.2221875 -832.140625 472.6484375 C-830.46237764 469.69152549 -828.24512846 467.72877092 -825.828125 465.3359375 C-824.13353768 463.46734042 -822.44639126 461.59197605 -820.765625 459.7109375 C-798.67054433 435.41122296 -771.20160967 417.55509691 -742.94641113 401.29330444 C-737.93415194 398.40650668 -732.96565887 395.45283817 -728.015625 392.4609375 C-721.97664644 388.81387063 -715.91747226 385.20327532 -709.83984375 381.62109375 C-707.67810253 380.34493931 -705.51649578 379.0685573 -703.35488892 377.79217529 C-701.94165999 376.95889756 -700.52760169 376.12702452 -699.11264038 375.29669189 C-691.99227744 371.11776642 -685.05370466 366.87630387 -678.34130859 362.05883789 C-673.81162994 358.95353944 -669.03867579 356.25569455 -664.28237915 353.51531982 C-661.0793224 351.66907751 -657.88521362 349.80749689 -654.69140625 347.9453125 C-654.0362352 347.56349823 -653.38106415 347.18168396 -652.70603943 346.78829956 C-645.96440755 342.84924604 -639.3007619 338.7857127 -632.640625 334.7109375 C-622.7196329 328.64578226 -612.70386711 322.76880774 -602.60986328 316.99511719 C-594.66962849 312.43761201 -586.82675446 307.73460195 -579.015625 302.9609375 C-566.39852842 295.25134533 -553.66774328 287.74975088 -540.896698 280.29859924 C-535.42335831 277.10372627 -529.96802707 273.87886685 -524.515625 270.6484375 C-517.17958876 266.30437954 -509.82284666 261.99757101 -502.453125 257.7109375 C-482.19285919 245.91720016 -462.06524061 233.89708703 -441.97314453 221.81958008 C-431.75813669 215.68351015 -421.50413166 209.61384133 -411.24909973 203.54498291 C-404.06419669 199.29270981 -396.88280479 195.03452313 -389.703125 190.7734375 C-389.02361786 190.37016235 -388.34411072 189.96688721 -387.64401245 189.5513916 C-378.85814562 184.33591398 -370.08497419 179.1000426 -361.328125 173.8359375 C-351.99128156 168.22320845 -342.63431342 162.64527694 -333.265625 157.0859375 C-332.59554413 156.688302 -331.92546326 156.2906665 -331.2350769 155.88098145 C-325.74249389 152.62193415 -320.24900753 149.36441063 -314.75549316 146.10693359 C-309.96678866 143.26730098 -305.1784383 140.42707251 -300.390625 137.5859375 C-299.72164185 137.18897675 -299.05265869 136.79201599 -298.36340332 136.38302612 C-288.55690715 130.56285134 -278.77055874 124.71003129 -268.99755859 118.83374023 C-261.3546157 114.24190572 -253.68927163 109.68867281 -246.015625 105.1484375 C-234.92704762 98.58716992 -223.86862789 91.97770115 -212.828125 85.3359375 C-199.04773172 77.04784982 -185.25849074 68.77575934 -171.40795898 60.60522461 C-165.90915599 57.35936804 -160.42208587 54.09786248 -154.96620178 50.78027344 C-107.88508209 22.15251553 -56.04582253 0.0590461 0 0 Z M-54.49902344 232.34179688 C-58.20915651 234.56417638 -61.92768332 236.77202952 -65.6484375 238.9765625 C-80.40160237 247.71897149 -95.13369797 256.49508344 -109.828125 265.3359375 C-113.74404809 267.69134329 -117.66073562 270.04547114 -121.578125 272.3984375 C-122.60832764 273.01734863 -123.63853027 273.63625977 -124.69995117 274.27392578 C-130.72169568 277.88688122 -136.75355853 281.4818737 -142.796875 285.05859375 C-155.41415215 292.52726967 -168.01309202 300.00521715 -180.45117188 307.77050781 C-187.34729797 312.06623108 -194.32580912 316.21146162 -201.32983398 320.32836914 C-208.24876618 324.39622305 -215.13784237 328.51142539 -222.015625 332.6484375 C-239.48461507 343.147149 -257.02042249 353.53105021 -274.61257935 363.82177734 C-285.16792987 369.99631874 -295.68784134 376.22398386 -306.16455078 382.53149414 C-314.69886221 387.66732325 -323.26029096 392.75633388 -331.828125 397.8359375 C-341.34314679 403.47784444 -350.84794017 409.13559111 -360.328125 414.8359375 C-377.61884608 425.23040019 -394.98109334 435.50485311 -412.33984375 445.78515625 C-412.94040588 446.14087204 -413.54096802 446.49658783 -414.159729 446.86308289 C-416.95164115 448.51671544 -419.74382544 450.16988108 -422.53662109 451.82202148 C-428.08333433 455.10585003 -433.61928972 458.40678745 -439.14453125 461.7265625 C-446.14958204 465.93532567 -453.17446526 470.11000619 -460.20474243 474.27645874 C-470.70035343 480.49740386 -481.184444 486.73639172 -491.640625 493.0234375 C-504.66755592 500.85455864 -517.74389407 508.60107171 -530.828125 516.3359375 C-531.80942383 516.91617676 -532.79072266 517.49641602 -533.80175781 518.09423828 C-538.37755547 520.79968846 -542.95401863 523.50400745 -547.53125 526.20703125 C-551.04272758 528.28076388 -554.55309956 530.35634797 -558.0625 532.43359375 C-559.83849573 533.48445264 -561.61453796 534.53523294 -563.390625 535.5859375 C-564.28483154 536.11501709 -565.17903809 536.64409668 -566.1003418 537.18920898 C-571.28376538 540.25257463 -576.47537283 543.30150298 -581.67578125 546.3359375 C-594.59501907 553.87772565 -607.45963132 561.49354344 -620.22494507 569.2935791 C-627.5135931 573.74691373 -634.84287231 578.10929203 -642.265625 582.3359375 C-649.75803764 586.6106858 -656.86126763 591.24599605 -663.828125 596.3359375 C-664.99021484 597.1403125 -664.99021484 597.1403125 -666.17578125 597.9609375 C-666.72105469 598.4146875 -667.26632812 598.8684375 -667.828125 599.3359375 C-667.828125 599.9959375 -667.828125 600.6559375 -667.828125 601.3359375 C-668.69050781 601.70332031 -668.69050781 601.70332031 -669.5703125 602.078125 C-683.05161914 609.5884723 -693.3678318 631.46189892 -697.44482422 645.45214844 C-700.6543519 657.36277116 -701.97998947 668.73415127 -701.95955276 681.07257652 C-701.9616054 682.23211639 -701.96365803 683.39165625 -701.96577287 684.58633369 C-701.97044339 687.7965421 -701.97067286 691.00671484 -701.96899528 694.21692505 C-701.96826145 697.71276332 -701.97329352 701.20859419 -701.9775703 704.70442927 C-701.98513573 711.63433834 -701.98734261 718.56423971 -701.98789935 725.49415248 C-701.98881444 733.79659001 -701.99548629 742.09902045 -702.00224617 750.40145492 C-702.01829397 770.46701909 -702.02420815 790.53258248 -702.02899492 810.59815192 C-702.03133217 820.09405943 -702.03493498 829.58996635 -702.0386903 839.08587339 C-702.05152496 871.60333675 -702.06224403 904.12079977 -702.0656929 936.63826561 C-702.06591453 938.67892251 -702.06613632 940.7195794 -702.06635825 942.7602363 C-702.06657889 944.80576943 -702.06679937 946.85130256 -702.0670197 948.89683568 C-702.06746225 953.00039697 -702.06790937 957.10395825 -702.06835938 961.20751953 C-702.06846877 962.22496153 -702.06857816 963.24240354 -702.06869086 964.29067712 C-702.07232059 997.27297165 -702.0882379 1030.25524419 -702.11154974 1063.2375303 C-702.136162 1098.12360401 -702.1498664 1133.00966514 -702.15106082 1167.89574778 C-702.15123227 1171.72757316 -702.15144769 1175.55939853 -702.15169525 1179.39122391 C-702.15175102 1180.3346993 -702.15180679 1181.27817468 -702.15186425 1182.25024024 C-702.1530135 1197.41437117 -702.16402479 1212.57847949 -702.17858231 1227.74260279 C-702.19296959 1242.99346562 -702.19617171 1258.24429954 -702.18814233 1273.4951673 C-702.18369654 1282.54724907 -702.18750448 1291.59923733 -702.20338084 1300.65130676 C-702.21317015 1306.70910072 -702.21191509 1312.76682958 -702.20194461 1318.82462302 C-702.1965809 1322.26886863 -702.19574974 1325.71293541 -702.20845333 1329.15716581 C-702.30143893 1360.2049192 -698.7048895 1387.95009981 -677.828125 1412.3359375 C-677.13976562 1413.15707031 -676.45140625 1413.97820312 -675.7421875 1414.82421875 C-667.29418311 1424.59129751 -657.48129494 1431.42202176 -646.453125 1438.0234375 C-644.1354905 1439.42684168 -641.82144097 1440.83609732 -639.5078125 1442.24609375 C-638.9353479 1442.5943219 -638.3628833 1442.94255005 -637.77307129 1443.30133057 C-632.64599622 1446.42801248 -627.5997404 1449.66833361 -622.578125 1452.9609375 C-607.0405122 1463.13702383 -591.33360571 1473.04008868 -575.5769043 1482.87280273 C-561.09021966 1491.91304775 -546.67483625 1501.06067903 -532.29711914 1510.27319336 C-525.48190715 1514.63976406 -518.65903181 1518.99396474 -511.828125 1523.3359375 C-498.74663731 1531.65277037 -485.69496597 1540.0160792 -472.64160156 1548.37695312 C-461.71233553 1555.37678393 -450.78061112 1562.3724788 -439.828125 1569.3359375 C-426.74673619 1577.65292688 -413.6949667 1586.01607873 -400.64160156 1594.37695312 C-389.71233553 1601.37678393 -378.78061112 1608.3724788 -367.828125 1615.3359375 C-354.74673619 1623.65292688 -341.6949667 1632.01607873 -328.64160156 1640.37695312 C-310.96173133 1651.70032104 -293.27664378 1663.01512883 -275.515625 1674.2109375 C-267.08473458 1679.52620019 -258.68917771 1684.89587596 -250.29760742 1690.27294922 C-243.4821766 1694.63951415 -236.65913452 1698.99378875 -229.828125 1703.3359375 C-211.85884168 1714.76291881 -193.92528778 1726.24203506 -176.08349609 1737.8671875 C-158.54753166 1749.28701453 -140.91984091 1760.56525429 -123.25463867 1771.78393555 C-114.58764262 1777.28820036 -105.95501697 1782.84045395 -97.35498047 1788.44873047 C-90.40442637 1792.9754035 -83.41344683 1797.43642021 -76.41040039 1801.88134766 C-70.27658283 1805.77503056 -64.15497177 1809.68718384 -58.0402832 1813.61083984 C-53.86176346 1816.29060029 -49.67923566 1818.96403366 -45.49462891 1821.63427734 C-43.87623321 1822.66707518 -42.2585259 1823.70095421 -40.64208984 1824.73681641 C-17.03899681 1839.82990937 9.24594619 1845.97320768 36.96875 1840.30859375 C54.51883696 1836.40543504 68.80195068 1827.73801083 83.62548828 1817.99902344 C88.51452533 1814.80591506 93.43906252 1811.66804616 98.359375 1808.5234375 C99.95736938 1807.5010498 99.95736938 1807.5010498 101.58764648 1806.45800781 C107.63386778 1802.59127555 113.68691874 1798.73548874 119.74536133 1794.88793945 C127.5813461 1789.91143607 135.39638247 1784.90651042 143.171875 1779.8359375 C150.04129372 1775.35623561 156.93694936 1770.92079887 163.859375 1766.5234375 C164.76977539 1765.94505127 165.68017578 1765.36666504 166.61816406 1764.77075195 C168.50047953 1763.57501877 170.38280389 1762.3792996 172.26513672 1761.18359375 C186.01758256 1752.44190803 199.73225858 1743.64695014 213.359375 1734.7109375 C223.96297024 1727.7578119 234.6345198 1720.92044365 245.34423828 1714.13232422 C250.46236238 1710.88079969 255.56634524 1707.60718738 260.671875 1704.3359375 C275.24856673 1695.00088359 289.84118657 1685.69139539 304.484375 1676.4609375 C312.91526542 1671.14567481 321.31082229 1665.77599904 329.70239258 1660.39892578 C336.51782308 1656.03236105 343.3408155 1651.67800732 350.171875 1647.3359375 C362.18890398 1639.6958568 374.18067888 1632.01647685 386.171875 1624.3359375 C403.7063868 1613.10482206 421.25882602 1601.90261123 438.8359375 1590.73828125 C447.81974124 1585.02983069 456.78987572 1579.30295529 465.71801758 1573.5078125 C472.27262949 1569.2586689 478.86383788 1565.06784958 485.45703125 1560.87890625 C492.53795753 1556.37906039 499.60727043 1551.86135932 506.671875 1547.3359375 C515.39264659 1541.75028062 524.1235257 1536.18089685 532.86328125 1530.625 C539.80789818 1526.20842348 546.74144216 1521.77473245 553.671875 1517.3359375 C574.31190298 1504.11843614 594.97447303 1490.93503137 615.77441406 1477.97021484 C627.25388322 1470.81362818 638.6700819 1463.56425725 650.0546875 1456.2578125 C654.99008639 1453.09052769 659.93464019 1449.93801599 664.88500977 1446.79418945 C667.61423286 1445.06006285 670.34046385 1443.3213089 673.06640625 1441.58203125 C676.34379393 1439.49238022 679.63254541 1437.42313403 682.93359375 1435.37109375 C708.18168645 1419.5664222 724.92939009 1397.39476304 731.984375 1368.3984375 C733.96522597 1359.47860555 734.31802623 1350.70526587 734.30050945 1341.60932922 C734.30226249 1340.45087854 734.30401553 1339.29242785 734.30582169 1338.0988726 C734.30966408 1334.89173161 734.30905704 1331.68462758 734.30654392 1328.47748643 C734.304906 1324.98500485 734.3090557 1321.49252925 734.31245309 1318.00004959 C734.31760075 1311.88152178 734.31902539 1305.76300188 734.31799698 1299.64447212 C734.31647136 1290.54556131 734.32063538 1281.44665924 734.3258716 1272.34775012 C734.33554214 1255.14978907 734.33835575 1237.95183101 734.33892866 1220.75386757 C734.33938828 1207.47047337 734.34144699 1194.18708034 734.34462929 1180.90368652 C734.34552684 1177.07946714 734.34641666 1173.25524775 734.34730417 1169.43102837 C734.34763574 1168.00493086 734.34763574 1168.00493086 734.34797401 1166.55002331 C734.35412831 1139.80706114 734.35807457 1113.06409938 734.35763073 1086.32113647 C734.35761515 1085.31286578 734.35759957 1084.30459508 734.35758352 1083.26577072 C734.35750041 1078.15550036 734.35740137 1073.04523001 734.35729881 1067.93495965 C734.35727887 1066.92005327 734.35725892 1065.90514689 734.35723837 1064.85948578 C734.35719794 1062.80709653 734.35715614 1060.75470729 734.35711298 1058.70231804 C734.3565004 1026.77924263 734.36400369 994.85617784 734.37768555 962.93310547 C734.3930533 927.06170824 734.40165133 891.190318 734.40072232 855.31891727 C734.4006477 851.49218305 734.40059899 847.66544883 734.40056801 843.8387146 C734.40055635 842.89648752 734.4005447 841.95426043 734.40053269 840.98348101 C734.40050195 825.83383851 734.4068824 810.68420524 734.41550027 795.53456549 C734.42398613 780.30166443 734.42495942 765.06877685 734.41839095 749.83587474 C734.41470136 740.79227972 734.41650996 731.74872573 734.42633329 722.70513507 C734.43234784 716.65554903 734.43102148 710.6059926 734.42386279 704.5564079 C734.41999368 701.11523964 734.41916955 697.67415057 734.42732015 694.232988 C734.48357681 664.7430925 732.58878215 633.83211589 712.171875 610.3359375 C711.511875 610.3359375 710.851875 610.3359375 710.171875 610.3359375 C709.800625 609.500625 709.800625 609.500625 709.421875 608.6484375 C704.11325059 598.82748234 693.91905326 592.60530227 684.67581177 586.85020447 C681.13771412 584.63758467 677.71561152 582.32669173 674.35131836 579.85307312 C666.42877334 574.02892759 658.15932436 568.9726296 649.671875 564.0234375 C648.25313516 563.18958417 646.83476481 562.35510189 645.41674805 561.52001953 C642.61354215 559.87029137 639.80845914 558.22384006 637.00146484 556.58056641 C632.84507893 554.14646182 628.70050674 551.69266587 624.55737305 549.23608398 C617.80324881 545.23257188 611.03525105 541.2529641 604.2578125 537.2890625 C601.79160423 535.84646086 599.32544369 534.40377772 596.859375 532.9609375 C595.93350082 532.41925934 595.93350082 532.41925934 594.98892212 531.86663818 C585.49852889 526.31180775 576.05561244 520.68250902 566.63671875 515.00708008 C558.57926617 510.16017893 550.47687987 505.39371097 542.359375 500.6484375 C531.78304647 494.46461646 521.24614547 488.22035832 510.75488281 481.89306641 C505.77220226 478.88932949 500.7847931 475.89346682 495.796875 472.8984375 C494.74185791 472.26494385 493.68684082 471.6314502 492.59985352 470.97875977 C484.79625741 466.29827862 476.96854302 461.65993154 469.12939453 457.03930664 C463.12693213 453.49882144 457.14347545 449.92820539 451.171875 446.3359375 C443.54962629 441.75196962 435.90258133 437.21185913 428.24194336 432.69238281 C420.43090211 428.08303325 412.62842814 423.45937172 404.82946777 418.82962036 C403.46032997 418.01687677 402.09111141 417.2042692 400.72180176 416.39181519 C393.07083471 411.85205975 385.43040302 407.29547707 377.80435181 402.71398926 C370.75375906 398.48038974 363.68215804 394.28232409 356.609375 390.0859375 C355.1933562 389.24544806 353.77734062 388.40495319 352.36132812 387.56445312 C344.63637543 382.98002942 336.90738832 378.40252493 329.171875 373.8359375 C320.72172545 368.8474713 312.27975173 363.84531695 303.84155273 358.83666992 C302.46727554 358.02095656 301.09292983 357.20535861 299.71850586 356.38989258 C290.75978628 351.07415623 281.81776971 345.73135115 272.88833618 340.36657715 C270.33452946 338.83315799 267.77858738 337.30331234 265.22265625 335.7734375 C254.81207778 329.53839262 244.41809032 323.27771998 234.05297852 316.96746826 C223.11400437 310.30835064 212.13226232 303.7290383 201.10595703 297.21508789 C192.57366409 292.17339142 184.07147035 287.0833658 175.57861328 281.97558594 C168.02519354 277.43712182 160.44642824 272.94290068 152.859375 268.4609375 C143.62969642 263.0071572 134.44885775 257.4810957 125.296875 251.8984375 C114.31669992 245.20080856 103.26033531 238.64283844 92.14453125 232.17285156 C86.58410423 228.93475209 81.05023933 225.66933201 75.59130859 222.26245117 C31.22541174 194.71937807 -13.09581319 207.47603773 -54.49902344 232.34179688 Z " fill="#000000" transform="translate(907.828125,-0.3359375)"/>
<path d="M0 0 C2.13232543 -0.0027153 4.26464992 -0.00627924 6.39697266 -0.01062012 C12.15619523 -0.01969057 17.91534563 -0.01621978 23.67456937 -0.00986195 C29.74015563 -0.00476429 35.8057361 -0.00950471 41.87132263 -0.01263428 C52.07031347 -0.01626717 62.2692753 -0.01149695 72.46826172 -0.00195312 C84.1854727 0.00888625 95.90261381 0.00543608 107.61982304 -0.00560594 C117.73597984 -0.01475082 127.85211588 -0.01592796 137.96827549 -0.0107286 C143.98458968 -0.00764246 150.00087133 -0.00710449 156.0171833 -0.01380157 C218.57191605 -0.07393661 218.57191605 -0.07393661 243.77124023 4.44628906 C245.61528442 4.76774902 245.61528442 4.76774902 247.49658203 5.09570312 C302.20189041 15.04020477 356.45759793 39.84622906 397.25561523 78.07910156 C399.25847075 79.95425824 401.30093327 81.7392231 403.39624023 83.50878906 C413.36920163 92.20947966 422.50196304 101.78491394 430.58374023 112.25878906 C431.61226921 113.57007865 432.64092426 114.88126935 433.66967773 116.19238281 C470.4287731 163.33732976 493.94188881 219.57393979 499.58374023 279.25878906 C499.69588867 280.35835937 499.80803711 281.45792969 499.92358398 282.59082031 C506.66870075 361.96144089 482.30597453 443.76503939 431.33764648 505.22363281 C428.89562661 508.11406138 426.40835008 510.96188032 423.8918457 513.78759766 C422.71736449 515.10850541 421.55776348 516.4426084 420.40014648 517.77832031 C410.08694639 529.53419868 398.99677449 540.72831719 386.58374023 550.25878906 C385.58213867 551.05414062 384.58053711 551.84949219 383.54858398 552.66894531 C370.40593196 563.05428468 356.3896598 571.80977269 341.79858398 580.00976562 C339.85335422 581.10674484 337.9208535 582.22276803 335.98999023 583.34472656 C301.81603184 602.547983 262.27362548 612.87366507 223.58374023 617.25878906 C222.55952658 617.38296251 222.55952658 617.38296251 221.51462173 617.50964451 C214.71333556 618.27441003 207.99685496 618.39438386 201.1574707 618.37231445 C199.95632126 618.37246048 198.75517181 618.37260651 197.5176239 618.37275696 C194.25590583 618.37218371 190.99423186 618.36720257 187.73252249 618.360183 C184.31192819 618.35388986 180.89133283 618.35334098 177.47073364 618.35215759 C171.00764443 618.34906173 164.54457234 618.34087209 158.08149064 618.3308081 C150.71743509 618.31959249 143.35337868 618.31412284 135.9893167 618.30911267 C120.85411505 618.29868784 105.71892936 618.28112252 90.58374023 618.25878906 C90.58449968 618.90079734 90.58525912 619.54280562 90.58604157 620.20426869 C90.63087876 658.32531992 90.6651542 696.44636722 90.68587089 734.56743945 C90.68837206 739.15319536 90.69096073 743.73895121 90.69360352 748.32470703 C90.69412814 749.23757956 90.69465276 750.15045208 90.69519328 751.09098741 C90.70387616 765.83733108 90.71963437 780.58365903 90.73804583 795.3299934 C90.75680396 810.48129526 90.76786941 825.63258893 90.77191722 840.78390193 C90.77465006 850.1195407 90.78325519 859.455135 90.79957317 868.79076007 C90.81021319 875.2081407 90.81332513 881.62549863 90.81074299 888.04288742 C90.80947252 891.7354314 90.81130375 895.42789814 90.82215118 899.12042809 C90.91202614 931.37848514 89.55930103 961.45046636 69.58374023 988.25878906 C68.8837793 989.20496094 68.18381836 990.15113281 67.46264648 991.12597656 C62.22274175 997.86966858 56.39754926 1003.14112134 49.58374023 1008.25878906 C48.81674805 1008.86335938 48.04975586 1009.46792969 47.25952148 1010.09082031 C25.88983093 1026.16343987 -1.81450894 1031.63638437 -28.04125977 1028.63378906 C-49.87964436 1025.10435317 -67.77226434 1016.64296747 -84.41625977 1002.25878906 C-85.55514648 1001.27458984 -85.55514648 1001.27458984 -86.71704102 1000.27050781 C-105.0596631 983.1041661 -116.22647318 956.80000942 -117.60206096 931.8948375 C-117.67379035 928.16318699 -117.68522233 924.43619973 -117.67352867 920.70387268 C-117.67622713 919.2616724 -117.67979783 917.81947354 -117.68415314 916.37727731 C-117.69356027 912.42873831 -117.6906271 908.48029218 -117.6855976 904.53174877 C-117.68231923 900.23033242 -117.69062325 895.92893543 -117.69741595 891.62752533 C-117.70770714 884.09326607 -117.71056127 876.55903251 -117.70850372 869.02476692 C-117.70545144 857.82057432 -117.71378279 846.61641011 -117.72425297 835.41222303 C-117.74358977 814.23532543 -117.74922109 793.05843752 -117.75036709 771.88153213 C-117.75128641 755.52567469 -117.75540431 739.16982105 -117.76176834 722.81396484 C-117.76356345 718.10478274 -117.76534308 713.39560064 -117.7671181 708.68641853 C-117.76756019 707.51567465 -117.76800229 706.34493076 -117.76845778 705.13870979 C-117.78076549 672.20950847 -117.78865899 639.28030846 -117.78777122 606.35110474 C-117.78774007 605.10971582 -117.78770891 603.8683269 -117.78767681 602.58932014 C-117.7875106 596.29755136 -117.78731251 590.00578259 -117.78710739 583.71401381 C-117.7870675 582.46446358 -117.78702761 581.21491335 -117.78698651 579.92749795 C-117.78690564 577.40060237 -117.78682204 574.87370679 -117.78673573 572.34681121 C-117.78551041 533.0386471 -117.80052013 493.73051751 -117.82788086 454.42236328 C-117.85861383 410.25131516 -117.87581261 366.08028972 -117.87395442 321.90923023 C-117.87380516 317.19753329 -117.87370774 312.48583635 -117.87364578 307.7741394 C-117.87362247 306.61401631 -117.87359917 305.45389323 -117.87357515 304.25861489 C-117.87351365 285.60332003 -117.88627595 266.94805517 -117.90351031 248.29276923 C-117.92047878 229.53712064 -117.92243113 210.78151586 -117.90929167 192.02586383 C-117.90191053 180.88992881 -117.90553552 169.75412704 -117.92517635 158.61820618 C-117.93720033 151.17020174 -117.93455843 143.72229352 -117.92023535 136.27429344 C-117.91249275 132.03687542 -117.91086119 127.79971471 -117.92715006 123.56231511 C-118.05990218 86.58077817 -112.30207275 55.70662118 -85.76000977 28.54003906 C-73.79606158 17.1391002 -59.86076906 9.39345436 -44.10375977 4.57128906 C-43.4530249 4.36858398 -42.80229004 4.16587891 -42.13183594 3.95703125 C-28.27015723 -0.06434933 -14.29081616 -0.0307597 0 0 Z M90.58374023 208.25878906 C90.58374023 275.24878906 90.58374023 342.23878906 90.58374023 411.25878906 C107.76436523 411.30003906 124.94499023 411.34128906 142.64624023 411.38378906 C150.74231812 411.41110107 150.74231812 411.41110107 159.00195312 411.43896484 C163.89818446 411.44565934 163.89818446 411.44565934 168.79441833 411.44967651 C170.95210091 411.45272016 173.10978039 411.45969621 175.2674408 411.46994019 C209.19928627 411.62279396 237.58575456 405.42730977 263.11499023 381.71582031 C281.73851303 363.18070032 292.61287969 338.94007067 292.96386719 312.55395508 C292.92434876 286.19140072 285.9022951 263.70221361 268.58374023 243.25878906 C267.78709961 242.13150391 267.78709961 242.13150391 266.97436523 240.98144531 C266.51545898 240.41296875 266.05655273 239.84449219 265.58374023 239.25878906 C264.92374023 239.25878906 264.26374023 239.25878906 263.58374023 239.25878906 C263.58374023 238.59878906 263.58374023 237.93878906 263.58374023 237.25878906 C244.13334953 218.48320783 218.4219461 208.05069984 191.5078125 208.14526367 C189.84129969 208.14508287 189.84129969 208.14508287 188.14111996 208.14489841 C184.56077478 208.14564213 180.98048229 208.15324571 177.40014648 208.16113281 C175.18330917 208.16260391 172.96647152 208.16362359 170.74963379 208.16418457 C162.54849729 208.16941804 154.34736824 208.1833793 146.14624023 208.19628906 C127.81061523 208.21691406 109.47499023 208.23753906 90.58374023 208.25878906 Z " fill="#000000" transform="translate(732.416259765625,507.7412109375)"/>
</svg>
